<svg xmlns="http://www.w3.org/2000/svg" aria-hidden="true" style="position:absolute;width:0;height:0;overflow:hidden"><defs><symbol id="icon-youtube" viewBox="0 0 32 32"><path fill="#fff" d="M28.724 8.664c.609 2.376.609 7.336.609 7.336s0 4.96-.609 7.336c-.339 1.313-1.329 2.347-2.584 2.696-2.279.635-10.14.635-10.14.635s-7.857 0-10.14-.635c-1.26-.355-2.249-1.387-2.584-2.696C2.667 20.96 2.667 16 2.667 16s0-4.96.609-7.336c.339-1.313 1.329-2.347 2.584-2.696C8.143 5.333 16 5.333 16 5.333s7.861 0 10.14.635c1.26.355 2.249 1.387 2.584 2.696zM13.333 20.667l8-4.667-8-4.667v9.333z" style="fill:var(--color1, #fff)"/></symbol><symbol id="icon-instagram" viewBox="0 0 32 32"><path fill="#fff" d="M16 2.667c3.623 0 4.075.013 5.496.08 1.42.067 2.387.289 3.237.62a6.51 6.51 0 0 1 2.363 1.537 6.538 6.538 0 0 1 1.537 2.363c.329.849.553 1.817.62 3.237.063 1.421.08 1.873.08 5.496s-.013 4.075-.08 5.496c-.067 1.42-.291 2.387-.62 3.237a6.53 6.53 0 0 1-1.537 2.363 6.55 6.55 0 0 1-2.363 1.537c-.849.329-1.817.553-3.237.62-1.421.063-1.873.08-5.496.08s-4.075-.013-5.496-.08c-1.42-.067-2.387-.291-3.237-.62a6.53 6.53 0 0 1-2.363-1.537 6.53 6.53 0 0 1-1.537-2.363c-.331-.849-.553-1.817-.62-3.237-.063-1.421-.08-1.873-.08-5.496s.013-4.075.08-5.496c.067-1.421.289-2.387.62-3.237a6.516 6.516 0 0 1 1.537-2.363 6.53 6.53 0 0 1 2.363-1.537c.851-.331 1.816-.553 3.237-.62 1.421-.063 1.873-.08 5.496-.08zm0 6.666a6.67 6.67 0 0 0-4.714 11.381 6.67 6.67 0 0 0 9.428 0A6.668 6.668 0 0 0 16 9.333zM24.667 9a1.667 1.667 0 1 0-3.334 0 1.667 1.667 0 0 0 3.334 0zM16 12a4.003 4.003 0 0 1 4 4 4.003 4.003 0 0 1-4 4 4.003 4.003 0 0 1-4-4 4.003 4.003 0 0 1 4-4z" style="fill:var(--color1, #fff)"/></symbol><symbol id="icon-tweeter" viewBox="0 0 32 32"><path fill="#fff" d="M29.549 7.541c-1.018.45-2.097.746-3.203.877a5.593 5.593 0 0 0 2.453-3.085 11.118 11.118 0 0 1-3.541 1.353 5.58 5.58 0 0 0-6.705-1.109 5.577 5.577 0 0 0-2.796 6.194A15.826 15.826 0 0 1 4.264 5.944a5.557 5.557 0 0 0-.755 2.804c0 1.933.984 3.641 2.48 4.641a5.562 5.562 0 0 1-2.525-.697v.069a5.58 5.58 0 0 0 4.473 5.468 5.603 5.603 0 0 1-2.52.096 5.58 5.58 0 0 0 5.209 3.873 11.181 11.181 0 0 1-8.254 2.309 15.783 15.783 0 0 0 8.547 2.507c10.257 0 15.867-8.497 15.867-15.867 0-.24-.007-.483-.017-.72a11.334 11.334 0 0 0 2.783-2.887l-.001-.001z" style="fill:var(--color1, #fff)"/></symbol><symbol id="icon-facebook" viewBox="0 0 32 32"><path fill="#fff" d="M20.536 28v-9.288h3.111l.465-3.611h-3.576v-2.304c0-1.045.291-1.759 1.789-1.759h1.912V7.809a25.69 25.69 0 0 0-2.787-.143c-2.756 0-4.643 1.683-4.643 4.773V15.1H13.69v3.611h3.117v9.288H5.332a1.334 1.334 0 0 1-1.334-1.334V5.332a1.335 1.335 0 0 1 1.334-1.334h21.333a1.335 1.335 0 0 1 1.334 1.334v21.333a1.334 1.334 0 0 1-1.334 1.334h-6.131z" style="fill:var(--color1, #fff)"/></symbol><symbol id="icon-Strelka" viewBox="0 0 45 32"><path fill="#7875fe" d="M44.175 17.509a2.134 2.134 0 0 0 0-3.017L30.598.916a2.134 2.134 0 0 0-3.017 3.017l12.068 12.068-12.068 12.068a2.134 2.134 0 0 0 3.017 3.017L44.175 17.51zM0 18.133h42.667v-4.267H0v4.267z" style="fill:var(--color2, #7875fe)"/></symbol><symbol id="icon-close" viewBox="0 0 32 32"><path fill="#4c5866" d="M7.2 7.2a1.132 1.132 0 0 1 1.6 0l16 16a1.132 1.132 0 0 1-1.6 1.6l-16-16a1.132 1.132 0 0 1 0-1.6z" style="fill:var(--color3, #4c5866)"/><path fill="#4c5866" d="M24.8 7.2a1.132 1.132 0 0 1 0 1.6l-16 16a1.132 1.132 0 0 1-1.6-1.6l16-16a1.132 1.132 0 0 1 1.6 0z" style="fill:var(--color3, #4c5866)"/></symbol><symbol id="icon-logo-footer" viewBox="0 0 195 32"><path fill="none" stroke="#fff" stroke-width="1.391" d="M22.957 15.304c0 6.147-4.983 11.13-11.13 11.13S.697 21.451.697 15.304c0-6.147 4.983-11.13 11.13-11.13s11.13 4.983 11.13 11.13z" style="stroke:var(--color1, #fff)"/><path fill="#fff" d="M35.951 24.459c1.039 0 1.892-.167 2.56-.501.686-.352 1.03-.937 1.03-1.753 0-.39-.065-.723-.195-1.002-.111-.278-.306-.529-.584-.751s-.649-.436-1.113-.64a52.864 52.864 0 0 0-1.67-.723 41.444 41.444 0 0 1-1.53-.668 7.174 7.174 0 0 1-1.28-.807c-.371-.315-.668-.686-.89-1.113s-.334-.946-.334-1.558c0-1.169.436-2.115 1.308-2.838.89-.723 2.105-1.085 3.645-1.085.983 0 1.79.083 2.421.25.649.167 1.104.315 1.363.445l-.417 1.614c-.223-.111-.603-.26-1.141-.445-.519-.185-1.289-.278-2.31-.278-.408 0-.798.046-1.169.139a2.673 2.673 0 0 0-.946.39c-.278.167-.501.39-.668.668-.167.26-.25.584-.25.974s.074.723.223 1.002c.148.278.362.529.64.751.297.204.649.399 1.057.584.427.185.909.39 1.447.612.557.223 1.085.455 1.586.696.519.223.974.501 1.363.835.39.315.705.705.946 1.169.241.445.362 1.011.362 1.697 0 1.299-.492 2.282-1.475 2.95-.965.668-2.291 1.002-3.979 1.002-1.261 0-2.226-.111-2.894-.334-.668-.204-1.113-.362-1.336-.473l.473-1.642c.056.037.176.102.362.195.185.074.436.167.751.278.315.093.686.176 1.113.25.445.074.955.111 1.53.111zm10.762 1.28h-1.809V11.353h1.809v14.386zm.417-18.727c0 .427-.13.77-.39 1.03-.26.241-.575.362-.946.362s-.686-.121-.946-.362c-.26-.26-.39-.603-.39-1.03s.13-.761.39-1.002c.26-.26.575-.39.946-.39s.686.13.946.39c.26.241.39.575.39 1.002zm4.377 4.842a41.476 41.476 0 0 1 2.087-.501c.872-.185 1.994-.278 3.367-.278 1.818 0 3.135.529 3.951 1.586.093-.074.269-.195.529-.362.278-.185.621-.371 1.03-.557s.881-.343 1.419-.473a8.082 8.082 0 0 1 1.837-.195c1.094 0 1.976.167 2.643.501.686.315 1.215.77 1.586 1.363.371.575.621 1.271.751 2.087s.195 1.707.195 2.671v8.042h-1.809v-7.457c0-.946-.046-1.762-.139-2.449-.074-.705-.241-1.28-.501-1.725a2.278 2.278 0 0 0-1.057-1.03c-.464-.241-1.067-.362-1.809-.362-.557 0-1.067.056-1.53.167a5.781 5.781 0 0 0-2.004.807c-.204.148-.353.26-.445.334.167.482.287 1.03.362 1.642.093.594.139 1.224.139 1.892v8.181H60.3v-7.457c0-.946-.046-1.762-.139-2.449-.074-.705-.241-1.28-.501-1.725a2.4 2.4 0 0 0-1.113-1.03c-.464-.241-1.085-.362-1.864-.362-.872 0-1.614.046-2.226.139-.594.093-.974.176-1.141.25v12.633h-1.809V11.852zm25.831 11.297c.167.13.371.269.612.417.26.148.557.288.89.417s.696.241 1.085.334c.39.074.798.111 1.224.111.89 0 1.632-.148 2.226-.445a4.063 4.063 0 0 0 1.475-1.252c.371-.538.64-1.159.807-1.864.167-.723.25-1.484.25-2.282 0-1.892-.473-3.339-1.419-4.341-.946-1.02-2.198-1.53-3.757-1.53-.89 0-1.614.046-2.17.139-.538.074-.946.158-1.224.25V23.15zm0 7.736h-1.809V11.854c.538-.185 1.224-.362 2.059-.529s1.892-.25 3.172-.25c1.057 0 2.013.176 2.866.529a5.915 5.915 0 0 1 2.226 1.475c.631.649 1.113 1.438 1.447 2.365.352.928.529 1.976.529 3.144 0 1.095-.148 2.105-.445 3.033a6.723 6.723 0 0 1-1.252 2.365 5.879 5.879 0 0 1-2.059 1.53c-.798.371-1.716.557-2.755.557-.946 0-1.772-.13-2.477-.39-.686-.278-1.187-.538-1.503-.779v5.983zm18.059-4.897a5.892 5.892 0 0 1-1.614-.25 2.947 2.947 0 0 1-1.141-.612 3.076 3.076 0 0 1-.696-1.113c-.148-.464-.223-1.039-.223-1.725V4.481l1.809-.334v18.087c0 .445.037.807.111 1.085.093.26.223.473.39.64.167.148.38.26.64.334.278.074.603.139.974.195l-.25 1.503zm2.584-7.458c0-1.262.176-2.356.529-3.283.371-.946.844-1.735 1.419-2.365.594-.631 1.261-1.095 2.003-1.391a6.058 6.058 0 0 1 2.337-.473c1.762 0 3.163.575 4.202 1.725 1.057 1.15 1.586 2.922 1.586 5.315 0 .148-.009.297-.028.445 0 .148-.009.288-.028.417H99.9c.056 1.762.492 3.117 1.308 4.063s2.115 1.419 3.896 1.419c.983 0 1.762-.093 2.337-.278s.993-.343 1.252-.473l.334 1.558c-.26.148-.751.325-1.475.529-.705.204-1.54.306-2.504.306-1.261 0-2.337-.185-3.228-.557s-1.623-.89-2.198-1.558a6.174 6.174 0 0 1-1.252-2.365c-.26-.928-.39-1.939-.39-3.033zm10.213-1.141c-.037-1.503-.39-2.671-1.057-3.506s-1.614-1.252-2.838-1.252c-.649 0-1.234.13-1.753.39a4.56 4.56 0 0 0-1.336 1.057 5.03 5.03 0 0 0-.89 1.503 6.525 6.525 0 0 0-.362 1.809h8.237z" style="fill:var(--color1, #fff)"/><path fill="none" stroke="#fff" stroke-width="1.391" d="M131.478 4.174h20.87c6.147 0 11.13 4.983 11.13 11.13s-4.983 11.13-11.13 11.13h-20.87c-6.147 0-11.13-4.983-11.13-11.13s4.983-11.13 11.13-11.13zM194.087 15.304c0 6.147-4.983 11.13-11.13 11.13s-11.13-4.983-11.13-11.13c0-6.147 4.983-11.13 11.13-11.13s11.13 4.983 11.13 11.13z" style="stroke:var(--color1, #fff)"/></symbol><symbol id="icon-log_in" viewBox="0 0 32 32"><path fill="none" stroke="#4c5866" stroke-linecap="round" stroke-linejoin="round" stroke-width="2.667" d="M20 4h5.333A2.67 2.67 0 0 1 28 6.667v18.667a2.67 2.67 0 0 1-2.667 2.667H20M13.333 22.667 20 16l-6.667-6.667M20 16H4" style="stroke:var(--color3, #4c5866)"/></symbol><symbol id="icon-Search" viewBox="0 0 32 32"><path fill="none" stroke="#4c5866" stroke-linecap="round" stroke-linejoin="round" stroke-width="2.667" d="M17.333 25.333c-5.891 0-10.667-4.776-10.667-10.667S11.442 3.999 17.333 3.999 28 8.775 28 14.666s-4.776 10.667-10.667 10.667zM4 28l5.8-5.8" style="stroke:var(--color3, #4c5866)"/></symbol><symbol id="icon-mob-menu" viewBox="0 0 32 32"><path fill="#4c5866" d="M5 23a.997.997 0 0 1 1-1h20a.997.997 0 0 1 1 1 .997.997 0 0 1-1 1H6a.997.997 0 0 1-1-1zm0-8a.997.997 0 0 1 1-1h20a.997.997 0 0 1 1 1 .997.997 0 0 1-1 1H6a.997.997 0 0 1-1-1zm0-8a.997.997 0 0 1 1-1h20a.997.997 0 0 1 1 1 .997.997 0 0 1-1 1H6a.997.997 0 0 1-1-1z" style="fill:var(--color3, #4c5866)"/></symbol><symbol id="icon-logo-header" viewBox="0 0 187 32"><path fill="none" stroke="#333" stroke-width="1.333" d="M22 16c0 5.891-4.776 10.667-10.667 10.667S.666 21.891.666 16 5.442 5.333 11.333 5.333 22 10.109 22 16z" style="stroke:var(--color4, #333)"/><path d="M34.453 24.773c.996 0 1.813-.16 2.453-.48.658-.338.987-.898.987-1.68 0-.373-.062-.693-.187-.96-.107-.267-.293-.507-.56-.72s-.622-.418-1.067-.613a49.17 49.17 0 0 0-1.6-.693 40.275 40.275 0 0 1-1.467-.64 6.93 6.93 0 0 1-1.227-.773c-.356-.302-.64-.658-.853-1.067s-.32-.907-.32-1.493c0-1.12.418-2.027 1.253-2.72.853-.693 2.018-1.04 3.493-1.04.942 0 1.716.08 2.32.24.622.16 1.058.302 1.307.427l-.4 1.547c-.213-.107-.578-.249-1.093-.427-.498-.178-1.236-.267-2.213-.267a4.6 4.6 0 0 0-1.12.133c-.338.071-.64.196-.907.373-.267.16-.48.373-.64.64-.16.249-.24.56-.24.933s.071.693.213.96c.142.267.347.507.613.72.284.196.622.382 1.013.56.409.178.871.373 1.387.587.533.213 1.04.436 1.52.667.498.213.933.48 1.307.8.373.302.676.676.907 1.12.231.427.347.969.347 1.627 0 1.244-.471 2.187-1.413 2.827-.924.64-2.196.96-3.813.96-1.209 0-2.133-.107-2.773-.32-.64-.196-1.067-.347-1.28-.453l.453-1.573c.053.036.169.098.347.187.178.071.418.16.72.267.302.089.658.169 1.067.24.427.071.916.107 1.467.107zM44.766 26h-1.733V12.213h1.733V26zm.4-17.947c0 .409-.124.738-.373.987-.249.231-.551.347-.907.347s-.658-.116-.907-.347c-.249-.249-.373-.578-.373-.987s.124-.729.373-.96c.249-.249.551-.373.907-.373s.658.124.907.373c.249.231.373.551.373.96zm4.195 4.64a39.017 39.017 0 0 1 2-.48c.835-.178 1.911-.267 3.227-.267 1.742 0 3.004.507 3.787 1.52a7.07 7.07 0 0 1 .507-.347c.267-.178.595-.356.987-.533s.844-.329 1.36-.453a7.77 7.77 0 0 1 1.76-.187c1.049 0 1.893.16 2.533.48.658.302 1.164.738 1.52 1.307.355.551.595 1.218.72 2s.187 1.636.187 2.56V26h-1.733v-7.147c0-.907-.045-1.689-.133-2.347-.071-.676-.231-1.227-.48-1.653a2.186 2.186 0 0 0-1.013-.987c-.445-.231-1.022-.347-1.733-.347-.533 0-1.022.053-1.467.16a5.504 5.504 0 0 0-1.92.774c-.196.142-.338.249-.427.32.16.462.275.987.347 1.573.089.569.133 1.173.133 1.813v7.84H57.79v-7.147c0-.907-.045-1.689-.133-2.347-.071-.676-.231-1.227-.48-1.653a2.305 2.305 0 0 0-1.067-.987c-.445-.231-1.04-.347-1.787-.347-.836 0-1.547.044-2.133.133-.569.089-.933.169-1.093.24v12.107h-1.733V12.691zM74.115 23.52c.16.124.356.258.587.4.249.142.533.276.853.4s.667.231 1.04.32c.373.071.764.107 1.173.107.853 0 1.564-.142 2.133-.427a3.879 3.879 0 0 0 1.413-1.2 5.233 5.233 0 0 0 .773-1.787c.16-.693.24-1.422.24-2.187 0-1.813-.453-3.2-1.36-4.16-.907-.978-2.107-1.467-3.6-1.467-.853 0-1.547.044-2.08.133-.516.071-.907.151-1.173.24v9.627zm0 7.413h-1.733v-18.24c.516-.178 1.173-.347 1.973-.507s1.813-.24 3.04-.24c1.013 0 1.929.169 2.747.507a5.67 5.67 0 0 1 2.133 1.413c.604.622 1.067 1.378 1.387 2.267.338.889.507 1.893.507 3.013 0 1.049-.142 2.018-.427 2.907-.267.871-.667 1.627-1.2 2.267a5.633 5.633 0 0 1-1.973 1.467c-.764.356-1.644.533-2.64.533-.907 0-1.698-.124-2.373-.373-.658-.267-1.138-.516-1.44-.747v5.733zm17.307-4.693a5.67 5.67 0 0 1-1.547-.24 2.804 2.804 0 0 1-1.093-.587 2.934 2.934 0 0 1-.667-1.067c-.142-.444-.213-.996-.213-1.653V5.626l1.733-.32v17.333c0 .427.035.773.107 1.04.089.249.213.453.373.613.16.142.364.249.613.32.267.071.578.133.933.187l-.24 1.44zm2.477-7.147c0-1.209.169-2.258.507-3.147.356-.907.809-1.662 1.36-2.267a5.358 5.358 0 0 1 1.92-1.333 5.803 5.803 0 0 1 2.24-.453c1.689 0 3.031.551 4.027 1.653 1.013 1.102 1.52 2.8 1.52 5.093 0 .142-.009.284-.027.427 0 .142-.009.276-.027.4h-9.68c.053 1.689.471 2.987 1.253 3.893s2.027 1.36 3.733 1.36c.942 0 1.689-.089 2.24-.267s.951-.329 1.2-.453l.32 1.493c-.249.142-.72.311-1.413.507-.675.196-1.475.293-2.4.293-1.209 0-2.24-.178-3.093-.533s-1.555-.853-2.107-1.493a5.917 5.917 0 0 1-1.2-2.267c-.249-.889-.373-1.858-.373-2.907zM103.686 18c-.035-1.44-.373-2.56-1.013-3.36s-1.547-1.2-2.72-1.2c-.622 0-1.182.124-1.68.373-.48.249-.907.587-1.28 1.013-.355.409-.64.889-.853 1.44a6.291 6.291 0 0 0-.347 1.733h7.893z"/><path fill="none" stroke="#333" stroke-width="1.333" d="M126 5.333h20c5.891 0 10.667 4.776 10.667 10.667S151.891 26.667 146 26.667h-20c-5.891 0-10.667-4.776-10.667-10.667S120.109 5.333 126 5.333zM186 16c0 5.891-4.776 10.667-10.667 10.667S164.666 21.891 164.666 16s4.776-10.667 10.667-10.667S186 10.109 186 16z" style="stroke:var(--color4, #333)"/></symbol></defs></svg>