<svg aria-hidden="true" style="position: absolute; width: 0; height: 0; overflow: hidden;" version="1.1" xmlns="http://www.w3.org/2000/svg" xmlns:xlink="http://www.w3.org/1999/xlink">
<defs>
<symbol id="icon-youtube" viewBox="0 0 32 32">
<path fill="#fff" style="fill: var(--color1)" d="M28.724 8.664c0.609 2.376 0.609 7.336 0.609 7.336s0 4.96-0.609 7.336c-0.339 1.313-1.329 2.347-2.584 2.696-2.279 0.635-10.14 0.635-10.14 0.635s-7.857 0-10.14-0.635c-1.26-0.355-2.249-1.387-2.584-2.696-0.609-2.376-0.609-7.336-0.609-7.336s0-4.96 0.609-7.336c0.339-1.313 1.329-2.347 2.584-2.696 2.283-0.635 10.14-0.635 10.14-0.635s7.861 0 10.14 0.635c1.26 0.355 2.249 1.387 2.584 2.696zM13.333 20.667l8-4.667-8-4.667v9.333z"></path>
</symbol>
<symbol id="icon-instagram" viewBox="0 0 32 32">
<path fill="#fff" style="fill: var(--color1)" d="M16 2.667c3.623 0 4.075 0.013 5.496 0.080 1.42 0.067 2.387 0.289 3.237 0.62 0.88 0.339 1.621 0.797 2.363 1.537 0.678 0.667 1.203 1.473 1.537 2.363 0.329 0.849 0.553 1.817 0.62 3.237 0.063 1.421 0.080 1.873 0.080 5.496s-0.013 4.075-0.080 5.496c-0.067 1.42-0.291 2.387-0.62 3.237-0.334 0.89-0.859 1.697-1.537 2.363-0.667 0.678-1.473 1.202-2.363 1.537-0.849 0.329-1.817 0.553-3.237 0.62-1.421 0.063-1.873 0.080-5.496 0.080s-4.075-0.013-5.496-0.080c-1.42-0.067-2.387-0.291-3.237-0.62-0.89-0.334-1.697-0.859-2.363-1.537-0.678-0.666-1.203-1.473-1.537-2.363-0.331-0.849-0.553-1.817-0.62-3.237-0.063-1.421-0.080-1.873-0.080-5.496s0.013-4.075 0.080-5.496c0.067-1.421 0.289-2.387 0.62-3.237 0.334-0.89 0.858-1.697 1.537-2.363 0.666-0.678 1.473-1.203 2.363-1.537 0.851-0.331 1.816-0.553 3.237-0.62 1.421-0.063 1.873-0.080 5.496-0.080zM16 9.333c-1.768 0-3.464 0.702-4.714 1.953s-1.953 2.946-1.953 4.714c0 1.768 0.702 3.464 1.953 4.714s2.946 1.953 4.714 1.953 3.464-0.702 4.714-1.953c1.25-1.25 1.953-2.946 1.953-4.714s-0.702-3.464-1.953-4.714c-1.25-1.25-2.946-1.953-4.714-1.953zM24.667 9c0-0.442-0.176-0.866-0.488-1.178s-0.737-0.488-1.179-0.488c-0.442 0-0.866 0.176-1.179 0.488s-0.488 0.736-0.488 1.178c0 0.442 0.176 0.866 0.488 1.178s0.737 0.488 1.179 0.488c0.442 0 0.866-0.176 1.179-0.488s0.488-0.736 0.488-1.178zM16 12c1.061 0 2.078 0.421 2.828 1.172s1.172 1.768 1.172 2.828c0 1.061-0.421 2.078-1.172 2.828s-1.768 1.172-2.828 1.172c-1.061 0-2.078-0.421-2.828-1.172s-1.172-1.768-1.172-2.828c0-1.061 0.421-2.078 1.172-2.828s1.768-1.172 2.828-1.172z"></path>
</symbol>
<symbol id="icon-tweeter" viewBox="0 0 32 32">
<path fill="#fff" style="fill: var(--color1" d="M29.549 7.541c-1.018 0.45-2.097 0.746-3.203 0.877 1.165-0.697 2.037-1.793 2.453-3.085-1.093 0.651-2.292 1.107-3.541 1.353-0.839-0.898-1.952-1.493-3.164-1.694s-2.457 0.005-3.541 0.585c-1.084 0.58-1.945 1.502-2.451 2.622s-0.627 2.376-0.345 3.572c-2.217-0.111-4.386-0.687-6.366-1.691s-3.727-2.413-5.127-4.136c-0.496 0.851-0.756 1.819-0.755 2.804 0 1.933 0.984 3.641 2.48 4.641-0.885-0.028-1.751-0.267-2.525-0.697v0.069c0 1.288 0.446 2.535 1.261 3.532s1.95 1.681 3.212 1.936c-0.822 0.223-1.684 0.256-2.52 0.096 0.356 1.108 1.049 2.078 1.983 2.772s2.062 1.080 3.226 1.101c-1.157 0.909-2.481 1.58-3.897 1.976s-2.897 0.509-4.357 0.333c2.549 1.639 5.516 2.509 8.547 2.507 10.257 0 15.867-8.497 15.867-15.867 0-0.24-0.007-0.483-0.017-0.72 1.092-0.789 2.034-1.767 2.783-2.887l-0.001-0.001z"></path>
</symbol>
<symbol id="icon-facebook" viewBox="0 0 32 32">
<path fill="none" style="fill: var(--color1)" d="M20.536 28v-9.288h3.111l0.465-3.611h-3.576v-2.304c0-1.045 0.291-1.759 1.789-1.759h1.912v-3.229c-0.926-0.098-1.856-0.146-2.787-0.143-2.756 0-4.643 1.683-4.643 4.773v2.661h-3.117v3.611h3.117v9.288h-11.475c-0.354 0-0.693-0.141-0.943-0.391s-0.391-0.589-0.391-0.943v-21.333c0-0.354 0.14-0.693 0.391-0.943s0.589-0.391 0.943-0.391h21.333c0.354 0 0.693 0.14 0.943 0.391s0.391 0.589 0.391 0.943v21.333c0 0.354-0.141 0.693-0.391 0.943s-0.589 0.391-0.943 0.391h-6.131z"></path>
</symbol>
<symbol id="icon-Strelka" viewBox="0 0 32 32">
<path fill="#7875fe" style="fill: var(--color2, #7875fe)" d="M31.554 17.078c0.595-0.595 0.595-1.56 0-2.155l-9.698-9.697c-0.595-0.595-1.56-0.595-2.155 0s-0.595 1.56 0 2.155l8.62 8.62-8.62 8.62c-0.595 0.595-0.595 1.56 0 2.155s1.56 0.595 2.155 0l9.698-9.697zM0 17.524h30.476v-3.048h-30.476v3.048z"></path>
</symbol>
<symbol id="icon-close" viewBox="0 0 32 32">
<path fill="#4c5866" style="fill: var(--color3, #4c5866)" d="M7.2 7.2c0.212-0.212 0.5-0.331 0.8-0.331s0.588 0.119 0.8 0.331l16 16c0.212 0.212 0.331 0.5 0.331 0.8s-0.119 0.588-0.331 0.8c-0.212 0.212-0.5 0.331-0.8 0.331s-0.588-0.119-0.8-0.331l-16-16c-0.212-0.212-0.331-0.5-0.331-0.8s0.119-0.588 0.331-0.8z"></path>
<path fill="#4c5866" style="fill: var(--color3, #4c5866)" d="M24.8 7.2c0.212 0.212 0.331 0.5 0.331 0.8s-0.119 0.588-0.331 0.8l-16 16c-0.212 0.212-0.5 0.331-0.8 0.331s-0.588-0.119-0.8-0.331c-0.212-0.212-0.331-0.5-0.331-0.8s0.119-0.588 0.331-0.8l16-16c0.212-0.212 0.5-0.331 0.8-0.331s0.588 0.119 0.8 0.331z"></path>
</symbol>
<symbol id="icon-log_in" viewBox="0 0 32 32">
<path fill="none"  style="stroke: var(--color3)" stroke-linejoin="round" stroke-linecap="round" stroke-miterlimit="4" stroke-width="2.6667" d="M20 4h5.333c0.707 0 1.385 0.281 1.886 0.781s0.781 1.178 0.781 1.886v18.667c0 0.707-0.281 1.385-0.781 1.886s-1.178 0.781-1.886 0.781h-5.333"></path>
<path fill="none"  style="stroke: var(--color3)" stroke-linejoin="round" stroke-linecap="round" stroke-miterlimit="4" stroke-width="2.6667" d="M13.333 22.667l6.667-6.667-6.667-6.667"></path>
<path fill="none"  style="stroke: var(--color3)" stroke-linejoin="round" stroke-linecap="round" stroke-miterlimit="4" stroke-width="2.6667" d="M20 16h-16"></path>
</symbol>
<symbol id="icon-Search" viewBox="0 0 32 32">
<path fill="none"  style="stroke: var(--color3)" stroke-linejoin="round" stroke-linecap="round" stroke-miterlimit="4" stroke-width="2.6667" d="M17.333 25.333c-5.891 0-10.667-4.776-10.667-10.667s4.776-10.667 10.667-10.667c5.891 0 10.667 4.776 10.667 10.667s-4.776 10.667-10.667 10.667z"></path>
<path fill="none"  style="stroke: var(--color3)" stroke-linejoin="round" stroke-linecap="round" stroke-miterlimit="4" stroke-width="2.6667" d="M4 28l5.8-5.8"></path>
</symbol>
<symbol id="icon-mob-menu" viewBox="0 0 32 32">
<path fill="none" style="fill: var(--color3)" d="M5 23c0-0.265 0.105-0.52 0.293-0.707s0.442-0.293 0.707-0.293h20c0.265 0 0.52 0.105 0.707 0.293s0.293 0.442 0.293 0.707c0 0.265-0.105 0.52-0.293 0.707s-0.442 0.293-0.707 0.293h-20c-0.265 0-0.52-0.105-0.707-0.293s-0.293-0.442-0.293-0.707zM5 15c0-0.265 0.105-0.52 0.293-0.707s0.442-0.293 0.707-0.293h20c0.265 0 0.52 0.105 0.707 0.293s0.293 0.442 0.293 0.707c0 0.265-0.105 0.52-0.293 0.707s-0.442 0.293-0.707 0.293h-20c-0.265 0-0.52-0.105-0.707-0.293s-0.293-0.442-0.293-0.707zM5 7c0-0.265 0.105-0.52 0.293-0.707s0.442-0.293 0.707-0.293h20c0.265 0 0.52 0.105 0.707 0.293s0.293 0.442 0.293 0.707c0 0.265-0.105 0.52-0.293 0.707s-0.442 0.293-0.707 0.293h-20c-0.265 0-0.52-0.105-0.707-0.293s-0.293-0.442-0.293-0.707z"></path>
</symbol>
<symbol id="icon-logo-footer" viewBox="0 0 195 32">
<path fill="none" stroke="#fff" style="stroke: var(--color1, #fff)" stroke-linejoin="miter" stroke-linecap="butt" stroke-miterlimit="4" stroke-width="1.3913" d="M22.957 15.304c0 6.147-4.983 11.13-11.13 11.13s-11.13-4.983-11.13-11.13c0-6.147 4.983-11.13 11.13-11.13s11.13 4.983 11.13 11.13z"></path>
<path fill="#fff" style="fill: var(--color1, #fff)" d="M35.951 24.459c1.039 0 1.892-0.167 2.56-0.501 0.686-0.352 1.030-0.937 1.030-1.753 0-0.39-0.065-0.723-0.195-1.002-0.111-0.278-0.306-0.529-0.584-0.751s-0.649-0.436-1.113-0.64c-0.445-0.204-1.002-0.445-1.67-0.723-0.538-0.223-1.048-0.445-1.53-0.668-0.482-0.241-0.909-0.51-1.28-0.807-0.371-0.315-0.668-0.686-0.89-1.113s-0.334-0.946-0.334-1.558c0-1.169 0.436-2.115 1.308-2.838 0.89-0.723 2.105-1.085 3.645-1.085 0.983 0 1.79 0.083 2.421 0.25 0.649 0.167 1.104 0.315 1.363 0.445l-0.417 1.614c-0.223-0.111-0.603-0.26-1.141-0.445-0.519-0.185-1.289-0.278-2.31-0.278-0.408 0-0.798 0.046-1.169 0.139-0.352 0.074-0.668 0.204-0.946 0.39-0.278 0.167-0.501 0.39-0.668 0.668-0.167 0.26-0.25 0.584-0.25 0.974s0.074 0.723 0.223 1.002c0.148 0.278 0.362 0.529 0.64 0.751 0.297 0.204 0.649 0.399 1.057 0.584 0.427 0.185 0.909 0.39 1.447 0.612 0.557 0.223 1.085 0.455 1.586 0.696 0.519 0.223 0.974 0.501 1.363 0.835 0.39 0.315 0.705 0.705 0.946 1.169 0.241 0.445 0.362 1.011 0.362 1.697 0 1.299-0.492 2.282-1.475 2.95-0.965 0.668-2.291 1.002-3.979 1.002-1.261 0-2.226-0.111-2.894-0.334-0.668-0.204-1.113-0.362-1.336-0.473l0.473-1.642c0.056 0.037 0.176 0.102 0.362 0.195 0.185 0.074 0.436 0.167 0.751 0.278 0.315 0.093 0.686 0.176 1.113 0.25 0.445 0.074 0.955 0.111 1.53 0.111zM46.713 25.739h-1.809v-14.386h1.809v14.386zM47.13 7.012c0 0.427-0.13 0.77-0.39 1.030-0.26 0.241-0.575 0.362-0.946 0.362s-0.686-0.121-0.946-0.362c-0.26-0.26-0.39-0.603-0.39-1.030s0.13-0.761 0.39-1.002c0.26-0.26 0.575-0.39 0.946-0.39s0.686 0.13 0.946 0.39c0.26 0.241 0.39 0.575 0.39 1.002zM51.507 11.854c0.538-0.148 1.234-0.315 2.087-0.501 0.872-0.185 1.994-0.278 3.367-0.278 1.818 0 3.135 0.529 3.951 1.586 0.093-0.074 0.269-0.195 0.529-0.362 0.278-0.185 0.621-0.371 1.030-0.557s0.881-0.343 1.419-0.473c0.557-0.13 1.169-0.195 1.837-0.195 1.094 0 1.976 0.167 2.643 0.501 0.686 0.315 1.215 0.77 1.586 1.363 0.371 0.575 0.621 1.271 0.751 2.087s0.195 1.707 0.195 2.671v8.042h-1.809v-7.457c0-0.946-0.046-1.762-0.139-2.449-0.074-0.705-0.241-1.28-0.501-1.725-0.241-0.464-0.594-0.807-1.057-1.030-0.464-0.241-1.067-0.362-1.809-0.362-0.557 0-1.067 0.056-1.53 0.167-0.445 0.093-0.835 0.213-1.169 0.362s-0.612 0.297-0.835 0.445c-0.204 0.148-0.353 0.26-0.445 0.334 0.167 0.482 0.287 1.030 0.362 1.642 0.093 0.594 0.139 1.224 0.139 1.892v8.181h-1.809v-7.457c0-0.946-0.046-1.762-0.139-2.449-0.074-0.705-0.241-1.28-0.501-1.725-0.26-0.464-0.631-0.807-1.113-1.030-0.464-0.241-1.085-0.362-1.864-0.362-0.872 0-1.614 0.046-2.226 0.139-0.594 0.093-0.974 0.176-1.141 0.25v12.633h-1.809v-13.885zM77.338 23.151c0.167 0.13 0.371 0.269 0.612 0.417 0.26 0.148 0.557 0.288 0.89 0.417s0.696 0.241 1.085 0.334c0.39 0.074 0.798 0.111 1.224 0.111 0.89 0 1.632-0.148 2.226-0.445 0.612-0.315 1.104-0.733 1.475-1.252 0.371-0.538 0.64-1.159 0.807-1.864 0.167-0.723 0.25-1.484 0.25-2.282 0-1.892-0.473-3.339-1.419-4.341-0.946-1.020-2.198-1.53-3.757-1.53-0.89 0-1.614 0.046-2.17 0.139-0.538 0.074-0.946 0.158-1.224 0.25v10.045zM77.338 30.887h-1.809v-19.033c0.538-0.185 1.224-0.362 2.059-0.529s1.892-0.25 3.172-0.25c1.057 0 2.013 0.176 2.866 0.529 0.872 0.334 1.614 0.825 2.226 1.475 0.631 0.649 1.113 1.438 1.447 2.365 0.352 0.928 0.529 1.976 0.529 3.144 0 1.095-0.148 2.105-0.445 3.033-0.278 0.909-0.696 1.697-1.252 2.365-0.557 0.649-1.243 1.159-2.059 1.53-0.798 0.371-1.716 0.557-2.755 0.557-0.946 0-1.772-0.13-2.477-0.39-0.686-0.278-1.187-0.538-1.503-0.779v5.983zM95.397 25.99c-0.612-0.018-1.15-0.102-1.614-0.25-0.445-0.13-0.826-0.334-1.141-0.612-0.297-0.297-0.529-0.668-0.696-1.113-0.148-0.464-0.223-1.039-0.223-1.725v-17.809l1.809-0.334v18.087c0 0.445 0.037 0.807 0.111 1.085 0.093 0.26 0.223 0.473 0.39 0.64 0.167 0.148 0.38 0.26 0.64 0.334 0.278 0.074 0.603 0.139 0.974 0.195l-0.25 1.503zM97.981 18.532c0-1.262 0.176-2.356 0.529-3.283 0.371-0.946 0.844-1.735 1.419-2.365 0.594-0.631 1.261-1.095 2.003-1.391 0.761-0.315 1.54-0.473 2.337-0.473 1.762 0 3.163 0.575 4.202 1.725 1.057 1.15 1.586 2.922 1.586 5.315 0 0.148-0.009 0.297-0.028 0.445 0 0.148-0.009 0.288-0.028 0.417h-10.101c0.056 1.762 0.492 3.117 1.308 4.063s2.115 1.419 3.896 1.419c0.983 0 1.762-0.093 2.337-0.278s0.993-0.343 1.252-0.473l0.334 1.558c-0.26 0.148-0.751 0.325-1.475 0.529-0.705 0.204-1.54 0.306-2.504 0.306-1.261 0-2.337-0.185-3.228-0.557s-1.623-0.89-2.198-1.558c-0.575-0.668-0.992-1.456-1.252-2.365-0.26-0.928-0.39-1.939-0.39-3.033zM108.194 17.391c-0.037-1.503-0.39-2.671-1.057-3.506s-1.614-1.252-2.838-1.252c-0.649 0-1.234 0.13-1.753 0.39-0.501 0.26-0.946 0.612-1.336 1.057-0.371 0.427-0.668 0.928-0.89 1.503-0.204 0.575-0.325 1.178-0.362 1.809h8.237z"></path>
<path fill="none" stroke="#fff" style="stroke: var(--color1, #fff)" stroke-linejoin="miter" stroke-linecap="butt" stroke-miterlimit="4" stroke-width="1.3913" d="M131.478 4.174h20.87c6.147 0 11.13 4.983 11.13 11.13s-4.983 11.13-11.13 11.13h-20.87c-6.147 0-11.13-4.983-11.13-11.13s4.983-11.13 11.13-11.13z"></path>
<path fill="none" stroke="#fff" style="stroke: var(--color1, #fff)" stroke-linejoin="miter" stroke-linecap="butt" stroke-miterlimit="4" stroke-width="1.3913" d="M194.087 15.304c0 6.147-4.983 11.13-11.13 11.13s-11.13-4.983-11.13-11.13c0-6.147 4.983-11.13 11.13-11.13s11.13 4.983 11.13 11.13z"></path>
</symbol>
<symbol id="icon-logo-header" viewBox="0 0 187 32">
<path fill="none" stroke="#333" style="stroke: var(--color4, #333)" stroke-linejoin="miter" stroke-linecap="butt" stroke-miterlimit="4" stroke-width="1.3333" d="M22 16c0 5.891-4.776 10.667-10.667 10.667s-10.667-4.776-10.667-10.667c0-5.891 4.776-10.667 10.667-10.667s10.667 4.776 10.667 10.667z"></path>
<path d="M34.453 24.773c0.996 0 1.813-0.16 2.453-0.48 0.658-0.338 0.987-0.898 0.987-1.68 0-0.373-0.062-0.693-0.187-0.96-0.107-0.267-0.293-0.507-0.56-0.72s-0.622-0.418-1.067-0.613c-0.427-0.196-0.96-0.427-1.6-0.693-0.516-0.213-1.004-0.427-1.467-0.64-0.462-0.231-0.871-0.489-1.227-0.773-0.356-0.302-0.64-0.658-0.853-1.067s-0.32-0.907-0.32-1.493c0-1.12 0.418-2.027 1.253-2.72 0.853-0.693 2.018-1.040 3.493-1.040 0.942 0 1.716 0.080 2.32 0.24 0.622 0.16 1.058 0.302 1.307 0.427l-0.4 1.547c-0.213-0.107-0.578-0.249-1.093-0.427-0.498-0.178-1.236-0.267-2.213-0.267-0.391 0-0.764 0.044-1.12 0.133-0.338 0.071-0.64 0.196-0.907 0.373-0.267 0.16-0.48 0.373-0.64 0.64-0.16 0.249-0.24 0.56-0.24 0.933s0.071 0.693 0.213 0.96c0.142 0.267 0.347 0.507 0.613 0.72 0.284 0.196 0.622 0.382 1.013 0.56 0.409 0.178 0.871 0.373 1.387 0.587 0.533 0.213 1.040 0.436 1.52 0.667 0.498 0.213 0.933 0.48 1.307 0.8 0.373 0.302 0.676 0.676 0.907 1.12 0.231 0.427 0.347 0.969 0.347 1.627 0 1.244-0.471 2.187-1.413 2.827-0.924 0.64-2.196 0.96-3.813 0.96-1.209 0-2.133-0.107-2.773-0.32-0.64-0.196-1.067-0.347-1.28-0.453l0.453-1.573c0.053 0.036 0.169 0.098 0.347 0.187 0.178 0.071 0.418 0.16 0.72 0.267 0.302 0.089 0.658 0.169 1.067 0.24 0.427 0.071 0.916 0.107 1.467 0.107zM44.766 26h-1.733v-13.787h1.733v13.787zM45.166 8.053c0 0.409-0.124 0.738-0.373 0.987-0.249 0.231-0.551 0.347-0.907 0.347s-0.658-0.116-0.907-0.347c-0.249-0.249-0.373-0.578-0.373-0.987s0.124-0.729 0.373-0.96c0.249-0.249 0.551-0.373 0.907-0.373s0.658 0.124 0.907 0.373c0.249 0.231 0.373 0.551 0.373 0.96zM49.361 12.693c0.515-0.142 1.182-0.302 2-0.48 0.835-0.178 1.911-0.267 3.227-0.267 1.742 0 3.004 0.507 3.787 1.52 0.089-0.071 0.258-0.187 0.507-0.347 0.267-0.178 0.595-0.356 0.987-0.533s0.844-0.329 1.36-0.453c0.533-0.124 1.12-0.187 1.76-0.187 1.049 0 1.893 0.16 2.533 0.48 0.658 0.302 1.164 0.738 1.52 1.307 0.355 0.551 0.595 1.218 0.72 2s0.187 1.636 0.187 2.56v7.707h-1.733v-7.147c0-0.907-0.045-1.689-0.133-2.347-0.071-0.676-0.231-1.227-0.48-1.653-0.231-0.444-0.569-0.773-1.013-0.987-0.445-0.231-1.022-0.347-1.733-0.347-0.533 0-1.022 0.053-1.467 0.16-0.427 0.089-0.8 0.204-1.12 0.347s-0.587 0.284-0.8 0.427c-0.196 0.142-0.338 0.249-0.427 0.32 0.16 0.462 0.275 0.987 0.347 1.573 0.089 0.569 0.133 1.173 0.133 1.813v7.84h-1.733v-7.147c0-0.907-0.045-1.689-0.133-2.347-0.071-0.676-0.231-1.227-0.48-1.653-0.249-0.444-0.605-0.773-1.067-0.987-0.445-0.231-1.040-0.347-1.787-0.347-0.836 0-1.547 0.044-2.133 0.133-0.569 0.089-0.933 0.169-1.093 0.24v12.107h-1.733v-13.307zM74.115 23.52c0.16 0.124 0.356 0.258 0.587 0.4 0.249 0.142 0.533 0.276 0.853 0.4s0.667 0.231 1.040 0.32c0.373 0.071 0.764 0.107 1.173 0.107 0.853 0 1.564-0.142 2.133-0.427 0.587-0.302 1.058-0.702 1.413-1.2 0.356-0.516 0.613-1.111 0.773-1.787 0.16-0.693 0.24-1.422 0.24-2.187 0-1.813-0.453-3.2-1.36-4.16-0.907-0.978-2.107-1.467-3.6-1.467-0.853 0-1.547 0.044-2.080 0.133-0.516 0.071-0.907 0.151-1.173 0.24v9.627zM74.115 30.933h-1.733v-18.24c0.516-0.178 1.173-0.347 1.973-0.507s1.813-0.24 3.040-0.24c1.013 0 1.929 0.169 2.747 0.507 0.836 0.32 1.547 0.791 2.133 1.413 0.604 0.622 1.067 1.378 1.387 2.267 0.338 0.889 0.507 1.893 0.507 3.013 0 1.049-0.142 2.018-0.427 2.907-0.267 0.871-0.667 1.627-1.2 2.267-0.533 0.622-1.191 1.111-1.973 1.467-0.764 0.356-1.644 0.533-2.64 0.533-0.907 0-1.698-0.124-2.373-0.373-0.658-0.267-1.138-0.516-1.44-0.747v5.733zM91.422 26.24c-0.587-0.018-1.102-0.098-1.547-0.24-0.427-0.124-0.791-0.32-1.093-0.587-0.285-0.284-0.507-0.64-0.667-1.067-0.142-0.444-0.213-0.996-0.213-1.653v-17.067l1.733-0.32v17.333c0 0.427 0.035 0.773 0.107 1.040 0.089 0.249 0.213 0.453 0.373 0.613 0.16 0.142 0.364 0.249 0.613 0.32 0.267 0.071 0.578 0.133 0.933 0.187l-0.24 1.44zM93.899 19.093c0-1.209 0.169-2.258 0.507-3.147 0.356-0.907 0.809-1.662 1.36-2.267 0.569-0.604 1.209-1.049 1.92-1.333 0.729-0.302 1.476-0.453 2.24-0.453 1.689 0 3.031 0.551 4.027 1.653 1.013 1.102 1.52 2.8 1.52 5.093 0 0.142-0.009 0.284-0.027 0.427 0 0.142-0.009 0.276-0.027 0.4h-9.68c0.053 1.689 0.471 2.987 1.253 3.893s2.027 1.36 3.733 1.36c0.942 0 1.689-0.089 2.24-0.267s0.951-0.329 1.2-0.453l0.32 1.493c-0.249 0.142-0.72 0.311-1.413 0.507-0.675 0.196-1.475 0.293-2.4 0.293-1.209 0-2.24-0.178-3.093-0.533s-1.555-0.853-2.107-1.493c-0.551-0.64-0.951-1.396-1.2-2.267-0.249-0.889-0.373-1.858-0.373-2.907zM103.686 18c-0.035-1.44-0.373-2.56-1.013-3.36s-1.547-1.2-2.72-1.2c-0.622 0-1.182 0.124-1.68 0.373-0.48 0.249-0.907 0.587-1.28 1.013-0.355 0.409-0.64 0.889-0.853 1.44-0.195 0.551-0.311 1.129-0.347 1.733h7.893z"></path>
<path fill="none" stroke="#333" style="stroke: var(--color4, #333)" stroke-linejoin="miter" stroke-linecap="butt" stroke-miterlimit="4" stroke-width="1.3333" d="M126 5.333h20c5.891 0 10.667 4.776 10.667 10.667s-4.776 10.667-10.667 10.667h-20c-5.891 0-10.667-4.776-10.667-10.667s4.776-10.667 10.667-10.667z"></path>
<path fill="none" stroke="#333" style="stroke: var(--color4, #333)" stroke-linejoin="miter" stroke-linecap="butt" stroke-miterlimit="4" stroke-width="1.3333" d="M186 16c0 5.891-4.776 10.667-10.667 10.667s-10.667-4.776-10.667-10.667c0-5.891 4.776-10.667 10.667-10.667s10.667 4.776 10.667 10.667z"></path>
</symbol>
</defs>
</svg>
